<svg id="Layer_1" data-name="Layer 1" xmlns="http://www.w3.org/2000/svg" viewBox="0 0 377 73.24">
    <defs>
        <style>.cls-1{fill:#fff;}</style>
    </defs>
    <title>svg - blue</title>
    <path class="cls-1"
        d="M115.58,46a33.77,33.77,0,0,0,1.84-9.6c0-6.21-1.73-10.53-7.23-10.53A6.17,6.17,0,0,0,105,28.21c-1.54-1.61-3.77-2.4-6.63-2.4-5.93,0-9.17,3.66-9.17,10.81s3.24,10.81,9.17,10.81,9.17-3.68,9.17-10.81a16.48,16.48,0,0,0-1-6c.57-2.26,1.66-2.93,3.07-2.93,2.21,0,3.59,2.64,3.59,8.66a34.36,34.36,0,0,1-1.73,9.15,3.07,3.07,0,0,1-1.08,1.39h5.65s-.61-.58-.5-1M98.37,45.6c-2.3,0-4.48-2-4.54-9s2.24-9,4.54-9,4.49,2.05,4.54,9-2.23,9-4.54,9" />
    <path class="cls-1"
        d="M189.21,32.11c-.12-5.62-3.58-6.3-6.28-6.3a5.33,5.33,0,0,0-4.82,2.61,5.33,5.33,0,0,0-4.82-2.61,7.36,7.36,0,0,0-3.8.84l2.1,2.34a2,2,0,0,1,2.09-1.3c1.64,0,2.48,1,2.48,4.19,0,.94,0,2.73,0,2.73h3.92s0-1.8,0-2.74c0-3.17.85-4.19,2.48-4.19,1.44,0,2.5.55,2.5,4.25v8.4c0,5-3.36,5.21-4,5.21a3.92,3.92,0,0,1-3.84-4.06c0-2.41.92-2.69.92-2.69h-4.92l0,1.59a7.21,7.21,0,0,0,7.72,7c2.75,0,8.24-.85,8.24-7Z" />
    <path class="cls-1"
        d="M227.58,35.09a2,2,0,0,1,.86-1.78h-4.73a10.27,10.27,0,0,0-.11,1.28c0,3.29,1.71,4.49,1.71,6.54,0,3.37-2.21,4.36-4,4.36s-4-1.05-4-4.86V29c0-2.4.91-2.68.91-2.68h-5.81s.91.28.91,2.67V40.67c0,3.81,2.9,6.77,8,6.77s8.12-3,8.12-6.81c0-2.38-1.88-4.13-1.88-5.54" />
    <path class="cls-1"
        d="M296.39,46a36.91,36.91,0,0,0,1.94-10.29c0-8.07-3.88-9.85-8.29-9.85s-8.29,1.78-8.29,9.85A36.55,36.55,0,0,0,283.69,46c.11.37-.51.95-.51.95h5.66a3.13,3.13,0,0,1-1.09-1.39A34.75,34.75,0,0,1,286,36.36c0-1.43-.58-8.6,4-8.6s4,7.17,4,8.6a34.36,34.36,0,0,1-1.73,9.15,3.07,3.07,0,0,1-1.08,1.39h5.65s-.61-.58-.5-.95" />
    <path class="cls-1"
        d="M336.71,46a36.55,36.55,0,0,0,1.94-10.29c0-8.07-3.87-9.84-8.29-9.84s-8.29,1.77-8.29,9.84A36.91,36.91,0,0,0,324,46c.11.37-.5.95-.5.95h5.65a3.14,3.14,0,0,1-1.08-1.39,34.36,34.36,0,0,1-1.73-9.15c0-1.43-.57-8.6,4-8.6s4,7.17,4,8.6a34.76,34.76,0,0,1-1.73,9.15,3.13,3.13,0,0,1-1.09,1.39h5.66s-.62-.58-.51-.95" />
    <path class="cls-1"
        d="M318.57,40.31c0-4.38-3.07-7.05-8-7.06a10,10,0,0,0-3.77.66V31.14c0-3,1.4-3.35,2.75-3.37h0c1.14,0,6.4,2,6.4,2l1.54-3.72c-3.23.39-5.95-.24-8.08-.24-5.45,0-6.82,1.76-6.82,5.7h0v8.69c0,4.45,3,7.16,8,7.16h0c4.93,0,8-2.72,8-7.06m-8,5.11c-.72,0-3.77-.25-3.77-5.11,0-.46.1-5.11,3.77-5.11,2.82,0,3.76,2.82,3.76,5.11,0,5-3.28,5.11-3.76,5.11" />
    <path class="cls-1"
        d="M204,31.27c-1.76-1.65-2.48-2.17-2.59-3a2.2,2.2,0,0,1,.88-1.94h-4.76a4.91,4.91,0,0,0-.16,2.1c.21,1.95,1.87,3.56,5.17,6.63a7.16,7.16,0,0,1,2.35,5.56c0,3.77-2.24,4.86-3.76,4.86s-3.77-1.09-3.77-4.86c0-.62,1.16-1.56,1.16-1.56h-5.23s-.15,1.21-.14,1.56c0,3.83,2.87,6.81,8,6.81s8-2.82,8-7.5c0-3.81-2.17-5.92-5.1-8.67" />
    <path class="cls-1"
        d="M371.89,31.27c-1.75-1.65-2.47-2.16-2.58-3a2.21,2.21,0,0,1,.87-1.95h-4.75a4.94,4.94,0,0,0-.16,2.11c.21,1.94,1.87,3.56,5.17,6.63a7.13,7.13,0,0,1,2.35,5.56c0,3.76-2.24,4.85-3.76,4.85s-3.77-1.09-3.77-4.86c0-.62,1.16-1.56,1.16-1.56h-5.23s-.15,1.21-.14,1.56c0,3.83,2.87,6.81,8,6.81s8-2.81,8-7.49c0-3.82-2.17-5.92-5.11-8.68" />
    <path class="cls-1"
        d="M254.78,34.07a5.85,5.85,0,0,0,2.7-5.28V26.33h-4.9s.91.27.91,2.67v.88c0,3.25-1.66,3.39-3.1,3.37h-1v2h1.28c1.52,0,3.75,1,3.75,5.15s-2.23,5.14-3.75,5.14-3.77-1.09-3.77-4.86h0c0-.62,1.15-1.56,1.15-1.56H242.8s-.14,1.21-.13,1.56h0c0,3.83,2.88,6.81,8,6.81s8-2.65,8-7.09a6.53,6.53,0,0,0-3.83-6.28" />
    <path class="cls-1"
        d="M353.72,34.07a5.84,5.84,0,0,0,2.7-5.27V26.33h-4.9s.91.28.92,2.67v.88c0,3.25-1.67,3.39-3.1,3.37h-1v2h1.28c1.52,0,3.75,1,3.75,5.15s-2.23,5.14-3.75,5.14-3.77-1.09-3.77-4.86h0c0-.62,1.15-1.56,1.15-1.56h-5.23s-.14,1.21-.13,1.56h0c0,3.83,2.87,6.81,8,6.81s8-2.65,8-7.09a6.53,6.53,0,0,0-3.83-6.28" />
    <path class="cls-1"
        d="M145.48,45.94a34.13,34.13,0,0,0,1.84-9.6c0-6.2-1.73-10.53-7.23-10.53a6,6,0,0,0-5.88,3.45,6,6,0,0,0-5.87-3.45c-5.5,0-7.23,4.33-7.23,10.53a33.77,33.77,0,0,0,1.84,9.6c.11.38-.5,1-.5,1h5.65A3.19,3.19,0,0,1,127,45.5a34.67,34.67,0,0,1-1.72-9.15c0-6,1.38-8.66,3.58-8.66,1.23,0,3.36.45,3.36,5.31v4.7c0,2.39-.92,3-.92,3h5.81s-.91-.57-.92-3V33c0-4.86,2.13-5.31,3.36-5.31,2.2,0,3.58,2.64,3.58,8.66a34.28,34.28,0,0,1-1.73,9.15,3.13,3.13,0,0,1-1.08,1.4H146s-.61-.58-.5-1" />
    <path class="cls-1"
        d="M159.85,42.7a5.43,5.43,0,0,1-3.65-3.46,8.51,8.51,0,0,0,3.3.69c4.92,0,8-2.73,8-7.06s-3-7.06-8-7.06h0c-4.83,0-8,2.93-8,7.59a14.66,14.66,0,0,0,2.64,9h-2.65v3.06a26,26,0,0,1,7.45-.42c3.44.27,4.07,1.8,4.07,1.8h3s-1.19-2.87-6.22-4.16m-.35-15c.48,0,3.77.1,3.77,5.11S160,38,159.5,38s-3.76-.1-3.76-5.11,3.28-5.11,3.76-5.11" />
    <path class="cls-1"
        d="M272.89,37.38h5.23c.13-3.3.18-3.51.13-4.68-.17-4.37-3.13-6.88-8-6.88s-8,2.93-8,7.58a14.64,14.64,0,0,0,2.64,9H262.3v3.07a25.73,25.73,0,0,1,7.45-.43c3.44.27,4.07,1.8,4.07,1.8h3s-1.19-2.87-6.22-4.16A5.66,5.66,0,0,1,267,39.24a24.65,24.65,0,0,1-.47-6.38c0-5,3.29-5.11,3.77-5.11s3.73.1,3.76,5v3c0,.62-1.15,1.56-1.15,1.56" />
    <path class="cls-1"
        d="M22.16,6.12,21.16,4a.55.55,0,0,0-.75-.26c-.76.38-1.52.78-2.25,1.21A.55.55,0,0,0,18,5.7l5.79,9.45a.17.17,0,0,0,.32-.09c0-.41,0-1-.1-1.85a19.81,19.81,0,0,0-1.82-7.09" />
    <path class="cls-1"
        d="M22.58,22.22l-11-11.58a.56.56,0,0,0-.79,0c-.6.61-1.19,1.23-1.75,1.87a.57.57,0,0,0,.06.79L21.44,23.62a.36.36,0,0,0,.51-.06l.66-.88a.36.36,0,0,0,0-.46" />
    <path class="cls-1"
        d="M16.91,26.28,4.71,19.72A.55.55,0,0,0,4,20c-.39.75-.75,1.53-1.08,2.31a.55.55,0,0,0,.31.73l5,2a20.11,20.11,0,0,0,6,1.37c.88.06,1.85.14,2.73.24a.16.16,0,0,0,.09-.31" />
    <path class="cls-1"
        d="M48.48,45.09c-.33-.1-.78-.25-1.41-.47a.64.64,0,0,0-.67.16,20.82,20.82,0,0,0-3.14,4.16c-1.52,2.79-1.78,6.63-1.87,10.8-.09,3.81.48,10.52.66,12.56a.54.54,0,0,0,.63.49c.92-.15,1.82-.34,2.71-.56a.55.55,0,0,0,.41-.61c-.26-1.7-1.09-7.33-1.37-12.06-.14-2.26-.22-7,1-9.48a21.2,21.2,0,0,1,3.2-4.63.22.22,0,0,0-.1-.36" />
    <path class="cls-1"
        d="M51.08,67.11l1,2.15a.57.57,0,0,0,.75.27c.76-.38,1.52-.79,2.25-1.22a.54.54,0,0,0,.19-.76l-5.8-9.46a.17.17,0,0,0-.31.09c0,.41,0,1,.1,1.86a19.81,19.81,0,0,0,1.82,7.07" />
    <path class="cls-1"
        d="M50.65,51l11,11.58a.56.56,0,0,0,.79,0c.61-.6,1.19-1.22,1.75-1.86a.56.56,0,0,0-.06-.79L51.8,49.62a.36.36,0,0,0-.51.06l-.67.88a.36.36,0,0,0,0,.46" />
    <path class="cls-1"
        d="M56.32,47l12.21,6.57a.56.56,0,0,0,.76-.24c.39-.75.75-1.53,1.08-2.31a.55.55,0,0,0-.31-.73l-5-2a19.79,19.79,0,0,0-6-1.37c-.88-.07-1.84-.15-2.72-.24a.17.17,0,0,0-.1.31" />
    <path class="cls-1"
        d="M48.94,30c2.79,1.52,6.63,1.77,10.8,1.87,3.81.09,10.52-.48,12.56-.66a.55.55,0,0,0,.49-.64c-.15-.91-.34-1.81-.56-2.7a.54.54,0,0,0-.61-.41c-1.7.26-7.33,1.08-12.06,1.37-2.26.14-7,.21-9.48-.95a21.18,21.18,0,0,1-4.63-3.21.23.23,0,0,0-.36.11c-.1.33-.25.77-.47,1.41a.64.64,0,0,0,.16.67A20.82,20.82,0,0,0,48.94,30" />
    <path class="cls-1"
        d="M67.11,22.16l2.15-1a.55.55,0,0,0,.26-.75c-.38-.76-.78-1.52-1.21-2.25a.56.56,0,0,0-.77-.19l-9.46,5.79a.17.17,0,0,0,.1.32c.41,0,1,0,1.85-.1a19.75,19.75,0,0,0,7.08-1.82" />
    <path class="cls-1"
        d="M51,22.59l11.58-11a.56.56,0,0,0,0-.79C62,10.15,61.39,9.57,60.75,9a.56.56,0,0,0-.79.06L49.62,21.44a.35.35,0,0,0,.06.51l.88.66a.36.36,0,0,0,.46,0" />
    <path class="cls-1"
        d="M50.24,3.17l-2,5a19.73,19.73,0,0,0-1.37,6c-.07.88-.15,1.84-.25,2.73a.17.17,0,0,0,.32.09l6.56-12.2A.55.55,0,0,0,53.29,4c-.75-.39-1.53-.75-2.32-1.08a.56.56,0,0,0-.73.3" />
    <path class="cls-1"
        d="M56.93,38.45c-4.18-.24-9.19-.92-13-3.66a52.28,52.28,0,0,1-6.24-5.49c1.7-2.54,3.32-6,4.06-12.45a138.45,138.45,0,0,0,.59-16,.56.56,0,0,0-.48-.54C40.78.17,39.66.06,38.52,0a.56.56,0,0,0-.58.6,145.42,145.42,0,0,1,.51,15.71c-.24,4.17-.92,9.18-3.66,13a52,52,0,0,1-5.49,6.23c-2.55-1.7-6-3.31-12.46-4a138.23,138.23,0,0,0-16-.59.54.54,0,0,0-.54.47C.17,32.45.06,33.58,0,34.72a.56.56,0,0,0,.6.58,148.17,148.17,0,0,1,15.71-.52c4.17.24,9.18.93,13,3.67a53.27,53.27,0,0,1,6.24,5.48c-1.71,2.55-3.32,6-4.06,12.46a138.61,138.61,0,0,0-.59,16,.53.53,0,0,0,.47.53c1.11.17,2.24.27,3.38.33a.55.55,0,0,0,.58-.59,145.76,145.76,0,0,1-.51-15.72c.23-4.18.92-9.19,3.66-13a52.43,52.43,0,0,1,5.48-6.24c2.55,1.7,6,3.32,12.46,4.06a138.61,138.61,0,0,0,16,.59.55.55,0,0,0,.53-.48c.17-1.11.27-2.23.33-3.37a.55.55,0,0,0-.59-.58,145.76,145.76,0,0,1-15.72.51M36.62,42.4a61.7,61.7,0,0,0-5.77-5.78,61.26,61.26,0,0,0,5.77-5.78,60.87,60.87,0,0,0,5.78,5.78,58.65,58.65,0,0,0-5.78,5.78" />
    <path class="cls-1"
        d="M13.49,41.39C9.69,41.3,3,41.86.94,42.05a.54.54,0,0,0-.49.63c.15.91.34,1.82.56,2.71a.55.55,0,0,0,.61.41c1.71-.26,7.34-1.09,12.06-1.37,2.26-.14,7-.22,9.48,1a21.2,21.2,0,0,1,4.63,3.2.21.21,0,0,0,.35-.1c.1-.33.26-.77.48-1.41a.64.64,0,0,0-.16-.67,21.12,21.12,0,0,0-4.16-3.14c-2.8-1.52-6.64-1.78-10.81-1.87" />
    <path class="cls-1"
        d="M6.13,51.08,4,52.08a.55.55,0,0,0-.26.75c.37.76.78,1.52,1.21,2.25a.55.55,0,0,0,.77.19l9.45-5.8a.17.17,0,0,0-.09-.31c-.41,0-1,0-1.86.1a19.7,19.7,0,0,0-7.07,1.82" />
    <path class="cls-1"
        d="M22.22,50.65l-11.58,11a.56.56,0,0,0,0,.79c.6.61,1.23,1.19,1.87,1.75a.55.55,0,0,0,.79-.06L23.62,51.8a.36.36,0,0,0-.06-.51l-.88-.66a.35.35,0,0,0-.46,0" />
    <path class="cls-1"
        d="M23,70.07l2-5a20,20,0,0,0,1.37-5.95c.06-.88.14-1.85.24-2.73a.17.17,0,0,0-.32-.1L19.72,68.54a.54.54,0,0,0,.23.75c.75.39,1.53.75,2.31,1.08a.56.56,0,0,0,.73-.3" />
    <path class="cls-1"
        d="M24.76,28.15l1.41.47a.64.64,0,0,0,.67-.16A20.82,20.82,0,0,0,30,24.3c1.52-2.79,1.78-6.63,1.87-10.8C31.94,9.69,31.37,3,31.19.94a.54.54,0,0,0-.63-.49c-.92.15-1.82.34-2.71.56a.54.54,0,0,0-.41.61c.26,1.7,1.08,7.33,1.37,12.06.14,2.26.22,7-.95,9.48a21.18,21.18,0,0,1-3.21,4.63.23.23,0,0,0,.11.36" />
</svg>